<?xml version="1.0" encoding="utf-8"?>
<!-- Generator: Adobe Illustrator 27.0.0, SVG Export Plug-In . SVG Version: 6.00 Build 0)  -->
<svg version="1.1" id="Layer_1" xmlns="http://www.w3.org/2000/svg" xmlns:xlink="http://www.w3.org/1999/xlink" x="0px" y="0px"
	 viewBox="0 0 576 448" style="enable-background:new 0 0 576 448;" xml:space="preserve">
<path d="M280.4,116.2L96,268.1V432c0,8.8,7.2,16,16,16l112.1-0.3c8.8,0,15.9-7.2,15.9-16V336c0-8.8,7.2-16,16-16h64
	c8.8,0,16,7.2,16,16v95.6c0,8.8,7.1,16,15.9,16c0,0,0,0,0.1,0l112,0.3c8.8,0,16-7.2,16-16V268L295.7,116.2
	C291.2,112.6,284.9,112.6,280.4,116.2L280.4,116.2z M571.6,219.4L488,150.5V12c0-6.6-5.4-12-12-12h-56c-6.6,0-12,5.4-12,12v72.6
	L318.5,11c-17.7-14.6-43.3-14.6-61,0L4.4,219.4c-5.1,4.2-5.8,11.8-1.6,16.9c0,0,0,0,0,0l25.5,31c4.2,5.1,11.8,5.9,16.9,1.6
	c0,0,0,0,0,0L280.4,75.2c4.5-3.6,10.8-3.6,15.3,0L530.9,269c5.1,4.2,12.7,3.5,16.9-1.6c0,0,0,0,0,0l25.5-31
	C577.5,231.2,576.8,223.7,571.6,219.4C571.6,219.4,571.6,219.4,571.6,219.4L571.6,219.4z"/>
</svg>
